<mxfile host="app.diagrams.net" agent="Mozilla/5.0 (Windows NT 10.0; Win64; x64) AppleWebKit/537.36 (KHTML, like Gecko) Chrome/133.0.0.0 Safari/537.36 Edg/133.0.0.0" version="26.0.15">
  <diagram name="Page-1" id="rUdfySCFXbABO2tnQ0RE">
    <mxGraphModel dx="1585" dy="867" grid="1" gridSize="10" guides="1" tooltips="1" connect="1" arrows="1" fold="1" page="1" pageScale="1" pageWidth="850" pageHeight="1100" math="0" shadow="0">
      <root>
        <mxCell id="0" />
        <mxCell id="1" parent="0" />
        <mxCell id="Iyg0KN1oKqng6jFjq0HM-2" value="" style="shape=or;whiteSpace=wrap;html=1;" vertex="1" parent="1">
          <mxGeometry x="120" y="40" width="120" height="160" as="geometry" />
        </mxCell>
        <mxCell id="Iyg0KN1oKqng6jFjq0HM-4" value="" style="shape=or;whiteSpace=wrap;html=1;" vertex="1" parent="1">
          <mxGeometry x="120" y="390" width="120" height="160" as="geometry" />
        </mxCell>
        <mxCell id="Iyg0KN1oKqng6jFjq0HM-5" value="" style="shape=or;whiteSpace=wrap;html=1;" vertex="1" parent="1">
          <mxGeometry x="120" y="220" width="120" height="160" as="geometry" />
        </mxCell>
        <mxCell id="Iyg0KN1oKqng6jFjq0HM-6" style="edgeStyle=orthogonalEdgeStyle;rounded=0;orthogonalLoop=1;jettySize=auto;html=1;exitX=1;exitY=0.5;exitDx=0;exitDy=0;exitPerimeter=0;entryX=0.175;entryY=0.25;entryDx=0;entryDy=0;entryPerimeter=0;" edge="1" parent="1" source="Iyg0KN1oKqng6jFjq0HM-7" target="Iyg0KN1oKqng6jFjq0HM-11">
          <mxGeometry relative="1" as="geometry">
            <mxPoint x="730" y="290" as="targetPoint" />
          </mxGeometry>
        </mxCell>
        <mxCell id="Iyg0KN1oKqng6jFjq0HM-7" value="" style="shape=xor;whiteSpace=wrap;html=1;" vertex="1" parent="1">
          <mxGeometry x="310" y="140" width="130" height="140" as="geometry" />
        </mxCell>
        <mxCell id="Iyg0KN1oKqng6jFjq0HM-8" style="edgeStyle=orthogonalEdgeStyle;rounded=0;orthogonalLoop=1;jettySize=auto;html=1;exitX=1;exitY=0.5;exitDx=0;exitDy=0;exitPerimeter=0;entryX=0.175;entryY=0.25;entryDx=0;entryDy=0;entryPerimeter=0;" edge="1" parent="1" source="Iyg0KN1oKqng6jFjq0HM-2" target="Iyg0KN1oKqng6jFjq0HM-7">
          <mxGeometry relative="1" as="geometry" />
        </mxCell>
        <mxCell id="Iyg0KN1oKqng6jFjq0HM-9" style="edgeStyle=orthogonalEdgeStyle;rounded=0;orthogonalLoop=1;jettySize=auto;html=1;exitX=1;exitY=0.5;exitDx=0;exitDy=0;exitPerimeter=0;entryX=0.25;entryY=0.5;entryDx=0;entryDy=0;entryPerimeter=0;" edge="1" parent="1" source="Iyg0KN1oKqng6jFjq0HM-5" target="Iyg0KN1oKqng6jFjq0HM-7">
          <mxGeometry relative="1" as="geometry" />
        </mxCell>
        <mxCell id="Iyg0KN1oKqng6jFjq0HM-10" style="edgeStyle=orthogonalEdgeStyle;rounded=0;orthogonalLoop=1;jettySize=auto;html=1;exitX=1;exitY=0.5;exitDx=0;exitDy=0;exitPerimeter=0;" edge="1" parent="1" source="Iyg0KN1oKqng6jFjq0HM-11">
          <mxGeometry relative="1" as="geometry">
            <mxPoint x="780" y="374.9230769230769" as="targetPoint" />
          </mxGeometry>
        </mxCell>
        <mxCell id="Iyg0KN1oKqng6jFjq0HM-11" value="" style="shape=xor;whiteSpace=wrap;html=1;" vertex="1" parent="1">
          <mxGeometry x="570" y="280" width="160" height="190" as="geometry" />
        </mxCell>
        <mxCell id="Iyg0KN1oKqng6jFjq0HM-17" style="edgeStyle=orthogonalEdgeStyle;rounded=0;orthogonalLoop=1;jettySize=auto;html=1;exitX=0;exitY=0.5;exitDx=0;exitDy=0;entryX=0;entryY=0.5;entryDx=0;entryDy=0;" edge="1" parent="1" target="Iyg0KN1oKqng6jFjq0HM-18">
          <mxGeometry relative="1" as="geometry">
            <mxPoint x="40" y="54.87234042553189" as="sourcePoint" />
          </mxGeometry>
        </mxCell>
        <mxCell id="Iyg0KN1oKqng6jFjq0HM-18" value="" style="ellipse;whiteSpace=wrap;html=1;aspect=fixed;" vertex="1" parent="1">
          <mxGeometry x="110" y="50" width="10" height="10" as="geometry" />
        </mxCell>
        <mxCell id="Iyg0KN1oKqng6jFjq0HM-23" value="" style="endArrow=classic;html=1;rounded=0;exitX=0;exitY=0.75;exitDx=0;exitDy=0;exitPerimeter=0;" edge="1" parent="1">
          <mxGeometry width="50" height="50" relative="1" as="geometry">
            <mxPoint x="40" y="170" as="sourcePoint" />
            <mxPoint x="120" y="170" as="targetPoint" />
            <Array as="points">
              <mxPoint x="70" y="170" />
              <mxPoint x="120" y="170" />
            </Array>
          </mxGeometry>
        </mxCell>
        <mxCell id="Iyg0KN1oKqng6jFjq0HM-24" value="a[3]" style="text;html=1;align=center;verticalAlign=middle;resizable=0;points=[];autosize=1;strokeColor=none;fillColor=none;" vertex="1" parent="1">
          <mxGeometry x="30" y="30" width="40" height="30" as="geometry" />
        </mxCell>
        <mxCell id="Iyg0KN1oKqng6jFjq0HM-27" value="a[0]" style="text;html=1;align=center;verticalAlign=middle;resizable=0;points=[];autosize=1;strokeColor=none;fillColor=none;" vertex="1" parent="1">
          <mxGeometry x="30" y="140" width="40" height="30" as="geometry" />
        </mxCell>
        <mxCell id="Iyg0KN1oKqng6jFjq0HM-30" style="edgeStyle=orthogonalEdgeStyle;rounded=0;orthogonalLoop=1;jettySize=auto;html=1;exitX=0;exitY=0.5;exitDx=0;exitDy=0;entryX=0;entryY=0.5;entryDx=0;entryDy=0;" edge="1" parent="1" target="Iyg0KN1oKqng6jFjq0HM-31">
          <mxGeometry relative="1" as="geometry">
            <mxPoint x="40" y="315" as="sourcePoint" />
          </mxGeometry>
        </mxCell>
        <mxCell id="Iyg0KN1oKqng6jFjq0HM-31" value="" style="ellipse;whiteSpace=wrap;html=1;aspect=fixed;" vertex="1" parent="1">
          <mxGeometry x="110" y="310" width="10" height="10" as="geometry" />
        </mxCell>
        <mxCell id="Iyg0KN1oKqng6jFjq0HM-32" style="edgeStyle=orthogonalEdgeStyle;rounded=0;orthogonalLoop=1;jettySize=auto;html=1;exitX=0;exitY=0.5;exitDx=0;exitDy=0;" edge="1" parent="1">
          <mxGeometry relative="1" as="geometry">
            <mxPoint x="120" y="355" as="targetPoint" />
            <mxPoint x="40" y="354.8723404255319" as="sourcePoint" />
          </mxGeometry>
        </mxCell>
        <mxCell id="Iyg0KN1oKqng6jFjq0HM-34" value="" style="endArrow=classic;html=1;rounded=0;entryX=0;entryY=0.5;entryDx=0;entryDy=0;" edge="1" parent="1" target="Iyg0KN1oKqng6jFjq0HM-59">
          <mxGeometry width="50" height="50" relative="1" as="geometry">
            <mxPoint x="40" y="275" as="sourcePoint" />
            <mxPoint x="100" y="280" as="targetPoint" />
          </mxGeometry>
        </mxCell>
        <mxCell id="Iyg0KN1oKqng6jFjq0HM-36" value="a[2]" style="text;html=1;align=center;verticalAlign=middle;resizable=0;points=[];autosize=1;strokeColor=none;fillColor=none;" vertex="1" parent="1">
          <mxGeometry x="50" y="250" width="40" height="30" as="geometry" />
        </mxCell>
        <mxCell id="Iyg0KN1oKqng6jFjq0HM-37" value="a[1]" style="text;html=1;align=center;verticalAlign=middle;resizable=0;points=[];autosize=1;strokeColor=none;fillColor=none;" vertex="1" parent="1">
          <mxGeometry x="40" y="288" width="40" height="30" as="geometry" />
        </mxCell>
        <mxCell id="Iyg0KN1oKqng6jFjq0HM-38" value="a[0]" style="text;html=1;align=center;verticalAlign=middle;resizable=0;points=[];autosize=1;strokeColor=none;fillColor=none;" vertex="1" parent="1">
          <mxGeometry x="40" y="330" width="40" height="30" as="geometry" />
        </mxCell>
        <mxCell id="Iyg0KN1oKqng6jFjq0HM-39" style="edgeStyle=orthogonalEdgeStyle;rounded=0;orthogonalLoop=1;jettySize=auto;html=1;exitX=0;exitY=0.5;exitDx=0;exitDy=0;entryX=0;entryY=0.5;entryDx=0;entryDy=0;" edge="1" parent="1" target="Iyg0KN1oKqng6jFjq0HM-40">
          <mxGeometry relative="1" as="geometry">
            <mxPoint x="50" y="474.8723404255319" as="sourcePoint" />
          </mxGeometry>
        </mxCell>
        <mxCell id="Iyg0KN1oKqng6jFjq0HM-40" value="" style="ellipse;whiteSpace=wrap;html=1;aspect=fixed;" vertex="1" parent="1">
          <mxGeometry x="110" y="470" width="10" height="10" as="geometry" />
        </mxCell>
        <mxCell id="Iyg0KN1oKqng6jFjq0HM-43" value="" style="endArrow=classic;html=1;rounded=0;exitX=-0.003;exitY=0.844;exitDx=0;exitDy=0;exitPerimeter=0;" edge="1" parent="1">
          <mxGeometry width="50" height="50" relative="1" as="geometry">
            <mxPoint x="50" y="440" as="sourcePoint" />
            <mxPoint x="120" y="441" as="targetPoint" />
          </mxGeometry>
        </mxCell>
        <mxCell id="Iyg0KN1oKqng6jFjq0HM-45" value="a[2]" style="text;html=1;align=center;verticalAlign=middle;resizable=0;points=[];autosize=1;strokeColor=none;fillColor=none;" vertex="1" parent="1">
          <mxGeometry x="50" y="418" width="40" height="30" as="geometry" />
        </mxCell>
        <mxCell id="Iyg0KN1oKqng6jFjq0HM-46" value="a[1]" style="text;html=1;align=center;verticalAlign=middle;resizable=0;points=[];autosize=1;strokeColor=none;fillColor=none;" vertex="1" parent="1">
          <mxGeometry x="50" y="450" width="40" height="30" as="geometry" />
        </mxCell>
        <mxCell id="Iyg0KN1oKqng6jFjq0HM-57" style="edgeStyle=orthogonalEdgeStyle;rounded=0;orthogonalLoop=1;jettySize=auto;html=1;exitX=1;exitY=0.5;exitDx=0;exitDy=0;exitPerimeter=0;entryX=0.275;entryY=0.584;entryDx=0;entryDy=0;entryPerimeter=0;" edge="1" parent="1" source="Iyg0KN1oKqng6jFjq0HM-4" target="Iyg0KN1oKqng6jFjq0HM-11">
          <mxGeometry relative="1" as="geometry" />
        </mxCell>
        <mxCell id="Iyg0KN1oKqng6jFjq0HM-58" value="&lt;h1&gt;E&lt;/h1&gt;" style="text;html=1;align=center;verticalAlign=middle;resizable=0;points=[];autosize=1;strokeColor=none;fillColor=none;" vertex="1" parent="1">
          <mxGeometry x="790" y="340" width="40" height="70" as="geometry" />
        </mxCell>
        <mxCell id="Iyg0KN1oKqng6jFjq0HM-59" value="" style="ellipse;whiteSpace=wrap;html=1;aspect=fixed;" vertex="1" parent="1">
          <mxGeometry x="110" y="270" width="10" height="10" as="geometry" />
        </mxCell>
        <mxCell id="Iyg0KN1oKqng6jFjq0HM-64" style="edgeStyle=orthogonalEdgeStyle;rounded=0;orthogonalLoop=1;jettySize=auto;html=1;exitX=0;exitY=0.5;exitDx=0;exitDy=0;entryX=0;entryY=0.5;entryDx=0;entryDy=0;" edge="1" parent="1" target="Iyg0KN1oKqng6jFjq0HM-61">
          <mxGeometry relative="1" as="geometry">
            <mxPoint x="40" y="405" as="sourcePoint" />
          </mxGeometry>
        </mxCell>
        <mxCell id="Iyg0KN1oKqng6jFjq0HM-61" value="" style="ellipse;whiteSpace=wrap;html=1;aspect=fixed;" vertex="1" parent="1">
          <mxGeometry x="110" y="400" width="10" height="10" as="geometry" />
        </mxCell>
      </root>
    </mxGraphModel>
  </diagram>
</mxfile>
